<svg xmlns="http://www.w3.org/2000/svg" viewBox="0 0 83 80.53"><defs><style>.cls-1{fill:#2d4356;}.cls-2{fill:#0bceb2;}</style></defs><title>AI</title><g id="Layer_2" data-name="Layer 2"><g id="Layer_1-2" data-name="Layer 1"><g id="AI"><circle class="cls-1" cx="0.99" cy="72.63" r="0.99"/><path class="cls-1" d="M5.43,71.64H4a1,1,0,1,0,0,2H5.43a1,1,0,1,0,0-2Z"/><path class="cls-2" d="M58.37,75.59h-4.1a1,1,0,0,0,0,2h4.1a1,1,0,0,0,0-2Zm-29.64,0h-4.1a1,1,0,0,0-.91,1.07,1,1,0,0,0,.91.91h4.1a1,1,0,0,0,.91-1.07A1,1,0,0,0,28.73,75.59Zm22.65,0H31.62a1,1,0,0,0,0,2h7.87v1H35.57a1,1,0,0,0,0,2H47.92a1,1,0,0,0,0-2H43.51v-1h7.87a1,1,0,1,0,0-2Z"/><path class="cls-1" d="M29.15,24.35V21.74a1,1,0,0,0-.5-.86l-6.92-3.95a1,1,0,0,0-1.35.37,1,1,0,0,0-.12.49v10.6l-4-3.17V17.15a3.46,3.46,0,1,0-2,0v8.54a1,1,0,0,0,.37.77l5.43,4.36a.6.6,0,0,0,.13.09V41.5a1,1,0,0,0,.23.64l2.73,3.18V53.5a3.45,3.45,0,1,0,2,0V45a1,1,0,0,0-.24-.64l-2.73-3.19V19.49l4.94,2.82v2a3.45,3.45,0,1,0,2,0ZM13.83,13.83a1.49,1.49,0,1,1,1.49,1.49h0a1.49,1.49,0,0,1-1.49-1.48Zm11.86,43a1.48,1.48,0,1,1-1.48-1.49,1.48,1.48,0,0,1,1.48,1.49Zm2.47-27.67a1.49,1.49,0,1,1,1.48-1.48h0a1.48,1.48,0,0,1-1.48,1.48Z"/><path class="cls-2" d="M38.24,25l-3.66-3.66v-7.5a1,1,0,0,0-2,0v7.91a.94.94,0,0,0,.29.69l3.66,3.67V40.6L29.15,48V40.86a3.45,3.45,0,1,0-2,0v9.53a1,1,0,0,0,.61.92,1,1,0,0,0,1.08-.22l9.38-9.39a1,1,0,0,0,.3-.69V25.69A1,1,0,0,0,38.24,25ZM28.16,39a1.48,1.48,0,1,1,1.48-1.48A1.48,1.48,0,0,1,28.16,39ZM15.81,46.58V39.87a3.45,3.45,0,1,0-2,0v6.71a3.46,3.46,0,1,0,2,0Zm-2.47-10A1.48,1.48,0,1,1,14.82,38a1.48,1.48,0,0,1-1.48-1.48Zm1.48,14.82A1.48,1.48,0,1,1,16.3,49.9a1.48,1.48,0,0,1-1.48,1.48Z"/><path class="cls-1" d="M79.05,71.64H77.57a1,1,0,1,0,0,2h1.48a1,1,0,1,0,0-2Z"/><circle class="cls-1" cx="82.01" cy="72.63" r="0.99"/><path class="cls-1" d="M74.46,71.64h-11a5.25,5.25,0,0,0,1.09-3.21V66.37l1.64-1.29a1,1,0,0,0,.19-1.35L65.15,62l2-.68a1,1,0,0,0,.61-1.25l-1-3.11h2.87a2.06,2.06,0,0,0,1.7-.9,2.13,2.13,0,0,0,.24-2L67.29,42.89l1.2-2.63a.91.91,0,0,0,.09-.41V34.38A23.94,23.94,0,0,0,59.76,16.2,27.16,27.16,0,0,0,41.7,10.39a.67.67,0,0,0-.2,0h-4a1,1,0,0,0-1,1v7.91a.94.94,0,0,0,.29.69l3.95,4a1,1,0,0,0,.7.29h5.93a1,1,0,0,0,.7-.29l1.61-1.61a3.45,3.45,0,1,0-1.4-4.68,3.41,3.41,0,0,0,0,3.28L47,22.23H41.91l-3.37-3.37V12.35h2.87a.88.88,0,0,0,.28,0C50.49,12,59.55,16,63.92,24.21h-3.3a3.45,3.45,0,1,0-4.3,4.3v9H48.91a1,1,0,0,0-1,1V44H40a1,1,0,0,0-.7.29l-7.9,7.91a.91.91,0,0,0-.29.69v8a3.46,3.46,0,1,0,2,0V53.27L40.43,46H58.3a1,1,0,0,0,.88-.55l3-5.93a1,1,0,0,0,.1-.44V35.57H66.6v4.07l-1.28,2.8a1,1,0,0,0,0,.76l4.36,11.58a.19.19,0,0,1,0,.15.09.09,0,0,1-.08,0H65.31a1,1,0,0,0-.8.42,1,1,0,0,0-.14.89l1.18,3.48-2.3.8a1,1,0,0,0-.48,1.51l1.47,2-1.28,1a1,1,0,0,0-.37.77v2.54A3.23,3.23,0,0,1,61,71.21a3,3,0,0,1-1.53.43c-4.13,0-20-5.2-20-13.84V55.74a1,1,0,0,0-2,0V57.8c0,6.82,7.42,11.43,13.8,13.84H8.54a1,1,0,1,0-.26,2,1.13,1.13,0,0,0,.26,0H74.46a1,1,0,1,0,.26-2,1.13,1.13,0,0,0-.26,0ZM51.38,17.79a1.48,1.48,0,1,1-1.48,1.48,1.48,1.48,0,0,1,1.48-1.48ZM33.6,64.23a1.49,1.49,0,1,1-1.49-1.49,1.49,1.49,0,0,1,1.49,1.49Zm22.23-39a1.48,1.48,0,1,1,1.48,1.48,1.49,1.49,0,0,1-1.48-1.48Zm5.43,8.4a1,1,0,0,0-1,1V38.8L57.69,44H49.9V39.52h7.41a1,1,0,0,0,1-1h0v-10a3.47,3.47,0,0,0,2.32-2.33h4.23a24,24,0,0,1,1.7,7.42Z"/><path class="cls-2" d="M50.89,27.67a3.51,3.51,0,0,0-1.65.41l-1.61-1.6a1,1,0,0,0-.7-.3H41.5a1,1,0,0,0-1,1v7.91a1,1,0,0,0,.35.75L44,38.5V44h2V38a1,1,0,0,0-.35-.75l-3.11-2.67V28.16h4l1.32,1.32a3.48,3.48,0,1,0,3-1.81Zm0,4.94a1.49,1.49,0,1,1,1.48-1.48,1.49,1.49,0,0,1-1.48,1.48Z"/><path class="cls-1" d="M26.68,13.83a1.48,1.48,0,1,0-1.48-1.48A1.48,1.48,0,0,0,26.68,13.83Zm0-2.22a.74.74,0,1,1-.74.74h0A.74.74,0,0,1,26.68,11.61Zm46.86,9.14a1,1,0,1,0,1,1A1,1,0,0,0,73.54,20.75Zm0,1.48a.49.49,0,0,1-.49-.49.5.5,0,1,1,.49.49Zm-8-11.85a1,1,0,1,0,1,1A1,1,0,0,0,65.56,10.38Zm0,1.48a.5.5,0,1,1,.49-.5A.49.49,0,0,1,65.56,11.86ZM74,0a1,1,0,1,0,1,1A1,1,0,0,0,74,0Zm0,1.48a.49.49,0,0,1-.5-.49.5.5,0,1,1,1,0A.49.49,0,0,1,74,1.48ZM5.78,22.73a1,1,0,1,0-1,1A1,1,0,0,0,5.78,22.73Zm-1.48,0a.49.49,0,1,1,.49.49A.49.49,0,0,1,4.3,22.73Z"/><polygon class="cls-2" points="4.01 4.58 4.74 3.61 4.28 3.35 3.81 4.43 3.79 4.43 3.31 3.36 2.84 3.63 3.57 4.57 3.57 4.58 2.43 4.44 2.43 4.96 3.57 4.82 3.57 4.83 2.84 5.78 3.28 6.05 3.78 4.96 3.8 4.96 4.26 6.05 4.75 5.77 4.01 4.84 4.01 4.83 5.17 4.96 5.17 4.44 4.01 4.59 4.01 4.58"/><polygon class="cls-2" points="18.94 1.84 18.52 2.39 18.77 2.55 19.06 1.92 19.07 1.92 19.34 2.54 19.62 2.38 19.19 1.85 19.19 1.84 19.86 1.92 19.86 1.62 19.19 1.7 19.19 1.7 19.61 1.14 19.34 0.99 19.07 1.61 19.06 1.61 18.79 0.99 18.52 1.15 18.93 1.69 18.93 1.7 18.28 1.62 18.28 1.92 18.94 1.83 18.94 1.84"/><polygon class="cls-2" points="80.54 13.1 80.54 12.59 79.4 12.74 79.4 12.72 80.12 11.78 79.67 11.52 79.2 12.58 79.19 12.58 78.72 11.53 78.25 11.79 78.97 12.72 78.97 12.73 77.85 12.59 77.85 13.1 78.97 12.96 78.97 12.97 78.25 13.9 78.69 14.17 79.18 13.1 79.19 13.1 79.65 14.16 80.13 13.89 79.4 12.98 79.4 12.97 80.54 13.1"/><polygon class="cls-2" points="39.87 5.33 40.49 4.51 40.1 4.29 39.7 5.21 39.69 5.21 39.28 4.3 38.88 4.53 39.5 5.32 39.5 5.34 38.54 5.21 38.54 5.66 39.5 5.53 39.5 5.55 38.88 6.34 39.26 6.58 39.68 5.66 39.69 5.66 40.09 6.57 40.5 6.34 39.87 5.55 39.87 5.54 40.86 5.66 40.86 5.21 39.87 5.34 39.87 5.33"/></g></g></g></svg>