<svg xmlns="http://www.w3.org/2000/svg" viewBox="0 0 73.58 62.77"><defs><style>.cls-1{fill:#e5f0f9;}.cls-2{opacity:0.04;}.cls-2,.cls-8{isolation:isolate;}.cls-3{fill:#3e5176;}.cls-4{fill:#293c66;}.cls-5{fill:#fff;}.cls-6{fill:#e1e1e1;}.cls-7{fill:#c6c6c6;}.cls-8{opacity:0.05;}</style></defs><title>web</title><g id="Layer_2" data-name="Layer 2"><g id="Layer_1-2" data-name="Layer 1"><g id="web"><path class="cls-1" d="M72.11,3.35V59.43a1.88,1.88,0,0,1-1.87,1.88H3.34a1.89,1.89,0,0,1-1.87-1.88V3.35A1.87,1.87,0,0,1,3.34,1.48h66.9A1.87,1.87,0,0,1,72.11,3.35Z"/><path class="cls-2" d="M72.12,3.36V59.42a1.91,1.91,0,0,1-1.89,1.89H3.34a1.9,1.9,0,0,1-1.87-1.89V54h38.9A24.71,24.71,0,0,0,65,29.32V1.48h5.22A1.88,1.88,0,0,1,72.12,3.36Z"/><path class="cls-3" d="M72.11,16.21V3.35a1.89,1.89,0,0,0-1.88-1.88H3.35A1.89,1.89,0,0,0,1.47,3.35V16.21Z"/><path class="cls-4" d="M70.23,0H3.35A3.35,3.35,0,0,0,0,3.35V59.42a3.35,3.35,0,0,0,3.35,3.35H70.23a3.35,3.35,0,0,0,3.35-3.35V3.35A3.35,3.35,0,0,0,70.23,0ZM2.94,3.35a.42.42,0,0,1,.41-.41H70.23a.42.42,0,0,1,.41.41V14.74H2.94ZM70.23,59.83H3.35a.42.42,0,0,1-.41-.41V17.68h67.7V59.42A.42.42,0,0,1,70.23,59.83Z"/><path class="cls-5" d="M23.11,8.84A2.21,2.21,0,1,1,20.9,6.63,2.22,2.22,0,0,1,23.11,8.84Zm-12.37,0A2.21,2.21,0,1,1,8.53,6.63,2.22,2.22,0,0,1,10.74,8.84Z"/><path class="cls-6" d="M10.74,8.84a2.22,2.22,0,0,1-4,1.24,2.16,2.16,0,0,0,1.22.36,2.22,2.22,0,0,0,2.21-2.2A2.17,2.17,0,0,0,9.75,7,2.23,2.23,0,0,1,10.74,8.84Z"/><path class="cls-5" d="M16.92,8.84a2.21,2.21,0,1,1-2.2-2.21A2.22,2.22,0,0,1,16.92,8.84Z"/><path class="cls-6" d="M16.92,8.84a2.21,2.21,0,0,1-4,1.24,2.16,2.16,0,0,0,1.22.36,2.22,2.22,0,0,0,2.21-2.2A2.25,2.25,0,0,0,15.94,7,2.22,2.22,0,0,1,16.92,8.84Z"/><path class="cls-6" d="M23.12,8.83A2.22,2.22,0,0,1,20.91,11a2.19,2.19,0,0,1-1.84-1,2.2,2.2,0,0,0,1.22.37A2.22,2.22,0,0,0,22.5,8.23,2.12,2.12,0,0,0,22.13,7,2.2,2.2,0,0,1,23.12,8.83Z"/><path class="cls-5" d="M67.27,7.29v3.1a.65.65,0,0,1-.67.65H28.21a.65.65,0,0,1-.65-.65V7.29a.67.67,0,0,1,.65-.67H66.6A.67.67,0,0,1,67.27,7.29Z"/><path class="cls-6" d="M67.27,7.29v3.1a.65.65,0,0,1-.67.65H28.21a.65.65,0,0,1-.65-.65v-.2H62.71a3.76,3.76,0,0,0,3.75-3.57h.14A.67.67,0,0,1,67.27,7.29Z"/><polygon class="cls-7" points="49.22 26.8 49.22 34.03 56.56 39.08 49.22 44.13 49.22 51.36 63.51 41.54 63.51 36.63 49.22 26.8"/><path class="cls-8" d="M63.51,36.63v4.91L49.23,51.36V47.91l7.7-5.31A9.32,9.32,0,0,0,61,34.91Z"/><polygon class="cls-7" points="24.36 26.8 24.36 34.03 17.02 39.08 24.36 44.13 24.36 51.36 10.08 41.54 10.08 36.63 24.36 26.8"/><polygon class="cls-8" points="24.36 47.73 24.36 51.36 10.07 41.54 10.07 37.91 24.36 47.73"/><polygon class="cls-7" points="45.18 55.49 34.65 22.01 28.4 22.01 38.94 55.49 45.18 55.49"/><polygon class="cls-8" points="45.19 55.5 42.33 55.5 31.79 22.01 34.65 22.01 45.19 55.5"/><path class="cls-4" d="M49.22,52.46a1.16,1.16,0,0,1-.51-.12,1.11,1.11,0,0,1-.59-1V44.13a1.09,1.09,0,0,1,.48-.91l6-4.14-6-4.14a1.09,1.09,0,0,1-.48-.91V26.8a1.1,1.1,0,0,1,1.73-.91l14.28,9.83a1.09,1.09,0,0,1,.48.91v4.91a1.12,1.12,0,0,1-.48.91L49.85,52.27A1.11,1.11,0,0,1,49.22,52.46Zm1.11-7.75v4.55L62.4,41V37.21L50.33,28.9v4.55l6.85,4.72a1.12,1.12,0,0,1,.48.91,1.09,1.09,0,0,1-.48.91Z"/><path class="cls-4" d="M24.36,52.46a1.11,1.11,0,0,1-.63-.19L9.45,42.45A1.12,1.12,0,0,1,9,41.54V36.63a1.09,1.09,0,0,1,.48-.91l14.28-9.83a1.11,1.11,0,0,1,1.14-.07,1.09,1.09,0,0,1,.59,1V34a1.09,1.09,0,0,1-.48.91l-6,4.14,6,4.14a1.09,1.09,0,0,1,.48.91v7.23a1.09,1.09,0,0,1-.59,1A1.16,1.16,0,0,1,24.36,52.46ZM11.18,41l12.08,8.3V44.71L16.4,40a1.09,1.09,0,0,1-.48-.91,1.12,1.12,0,0,1,.48-.91l6.86-4.72V28.9L11.18,37.21Z"/><path class="cls-4" d="M45.18,56.6H38.94a1.11,1.11,0,0,1-1.06-.77L27.35,22.34a1.08,1.08,0,0,1,.16-1,1.12,1.12,0,0,1,.89-.45h6.25a1.1,1.1,0,0,1,1.05.77L46.24,55.16a1.13,1.13,0,0,1-.17,1A1.09,1.09,0,0,1,45.18,56.6Zm-5.44-2.21h3.94L33.84,23.12H29.91Z"/></g></g></g></svg>